# xmcd
#
# Track frame offsets: 
#        150
#        24477
#        41977
#        60179
#        79021
#        105247
#        133363
#        149069
#        164565
#        187447
#
# Disc length: 2735 seconds
#
# Revision: 0
# Processed by: cddbd v1.5.2PL0 Copyright (c) Steve Scherf et al.
# Submitted via: ExactAudioCopyFreeDBPlugin 1.0
#
DISCID=930aad0a
DTITLE=Carl Carlton - Carl Carlton
DYEAR=1981
DGENRE=R&B
TTITLE0=Sexy Lady
TTITLE1=Let Me Love You 'til The Morning Comes
TTITLE2=Don't You Wanna Make Love
TTITLE3=This Feeling's Rated X-tra
TTITLE4=She's A Bad Mama Jama (She's Built, She's Stacked)
TTITLE5=I've Got That Boogie Fever
TTITLE6=I Think It's Gonna Be Alright
TTITLE7=Fighting In The Name Of Love
TTITLE8=This Feeling's Rated X-tra (12" Version)
TTITLE9=She's A Bad Mama Jama (She's Built, She's Stacked) (Single Ver
TTITLE9=sion)
EXTD=
EXTT0=
EXTT1=
EXTT2=
EXTT3=
EXTT4=
EXTT5=
EXTT6=
EXTT7=
EXTT8=
EXTT9=
PLAYORDER=
